HIERARCHY
ROOT Hips
{
	OFFSET 0.00000 0.00000 0.00000
	CHANNELS 6 Xposition Yposition Zposition Zrotation Yrotation Xrotation 
	JOINT LHipJoint
	{
		OFFSET 0 0 0
		CHANNELS 3 Zrotation Yrotation Xrotation
		JOINT LeftHip
		{
			OFFSET 1.61328 -1.70571 0.84375
			CHANNELS 3 Zrotation Yrotation Xrotation
			JOINT LeftKnee
			{
				OFFSET 2.32400 -6.38513 0.00000
				CHANNELS 3 Zrotation Yrotation Xrotation
				JOINT LeftAnkle
				{
					OFFSET 2.58843 -7.11166 0.00000
					CHANNELS 3 Zrotation Yrotation Xrotation
					JOINT LeftToe
					{
						OFFSET 0.17200 -0.47257 2.47970
						CHANNELS 3 Zrotation Yrotation Xrotation
						End Site
						{
							OFFSET 0.00000 -0.00000 1.26912
						}
					}
				}
			}
		}
	}
	JOINT RHipJoint
	{
		OFFSET 0 0 0
		CHANNELS 3 Zrotation Yrotation Xrotation
		JOINT RightHip
		{
			OFFSET -1.49930 -1.70570 0.84375
			CHANNELS 3 Zrotation Yrotation Xrotation
			JOINT RightKnee
			{
				OFFSET -2.30458 -6.33178 0.00000
				CHANNELS 3 Zrotation Yrotation Xrotation
				JOINT RightAnkle
				{
					OFFSET -2.62261 -7.20556 0.00000
					CHANNELS 3 Zrotation Yrotation Xrotation
					JOINT RightToe
					{
						OFFSET -0.18709 -0.51403 2.51340
						CHANNELS 3 Zrotation Yrotation Xrotation
						End Site
						{
							OFFSET -0.00000 -0.00000 1.28858
						}
					}
				}
			}
		}
	}
	JOINT lowerback
	{
		OFFSET 0 0 0
		CHANNELS 3 Zrotation Yrotation Xrotation
		JOINT Chest
		{
			OFFSET -0.03798 2.19274 -0.19881
			CHANNELS 3 Zrotation Yrotation Xrotation
			JOINT Chest2
			{
				OFFSET -0.00024 2.19460 0.05248
				CHANNELS 3 Zrotation Yrotation Xrotation
				JOINT lowerneck
				{
					OFFSET 0 0 0
					CHANNELS 3 Zrotation Yrotation Xrotation
					JOINT Neck
					{
						OFFSET -0.00746 1.82323 0.17286
						CHANNELS 3 Zrotation Yrotation Xrotation
						JOINT Head
						{
							OFFSET 0.11826 1.82121 -0.27841
							CHANNELS 3 Zrotation Yrotation Xrotation
							End Site
							{
								OFFSET 0.03496 1.85543 -0.11495
							}
						}
					}
				}
				JOINT LeftCollar
				{
					OFFSET 0 0 0
					CHANNELS 3 Zrotation Yrotation Xrotation
					JOINT LeftShoulder
					{
						OFFSET 3.71926 0.78840 0.25473
CHANNELS 3 Zrotation Xrotation Yrotation
						JOINT LeftElbow
						{
OFFSET 0 -5.375870 0.000000
CHANNELS 3 Zrotation Xrotation Yrotation
							JOINT LeftWrist
							{
OFFSET 0 -3.359770 0.000000
CHANNELS 3 Zrotation Xrotation Yrotation
								JOINT lhand
								{
									OFFSET 0 0 0
CHANNELS 3 Zrotation Xrotation Yrotation
									JOINT LFingers
									{
OFFSET 0 -0.561860 0.000000
CHANNELS 3 Zrotation Xrotation Yrotation
										End Site
										{
OFFSET 0 -0.452990 0.000000
										}
									}
								}
								JOINT LThumb
								{
OFFSET 0 0.000000 0.000000
CHANNELS 3 Zrotation Xrotation Yrotation
									End Site
									{
OFFSET 0 -0.459900 0.459900
									}
								}
							}
						}
					}
				}
				JOINT RightCollar
				{
					OFFSET 0 0 0
					CHANNELS 3 Zrotation Yrotation Xrotation
					JOINT RightShoulder
					{
						OFFSET -3.65136 0.56074 0.01624
CHANNELS 3 Zrotation Xrotation Yrotation
						JOINT RightElbow
						{
OFFSET 0 -5.228190 0.000000
CHANNELS 3 Zrotation Xrotation Yrotation
							JOINT RightWrist
							{
OFFSET 0 -3.407640 0.000000
CHANNELS 3 Zrotation Xrotation Yrotation
								JOINT rhand
								{
									OFFSET 0 0 0
CHANNELS 3 Zrotation Xrotation Yrotation
									JOINT RFingers
									{
OFFSET 0 -0.583250 0.000000
CHANNELS 3 Zrotation Xrotation Yrotation
										End Site
										{
OFFSET 0 -0.470240 0.000000
										}
									}
								}
								JOINT RThumb
								{
OFFSET 0 0.000000 0.000000
CHANNELS 3 Zrotation Xrotation Yrotation
									End Site
									{
OFFSET 0 -0.477420 0.477420
									}
								}
							}
						}
					}
				}
			}
		}
	}
}
MOTION
Frames: 7
Frame Time: 0.008333333333333333
-28.141073 16.262614 -4.146866 170.293351 60.004961 -540.365294 0.000000 0.000000 0.000000 -29.463506 0.416364 -20.521154 3.299256 11.163748 32.834848 1.784722 -3.365545 -24.416345 1.686383 -8.179758 -23.261352 0.000000 0.000000 0.000000 10.838339 12.612020 -33.938794 -13.021883 -18.789642 69.192976 -2.061057 2.153578 -26.582168 -0.037599 1.251009 -3.439787 -3.235813 -3.568438 7.898895 2.197097 -4.795107 3.283804 4.461803 -2.383940 -0.553610 0.327581 -2.494213 -10.954346 9.487852 -2.671741 -6.731066 2.896878 -1.083035 -0.127078 0.000000 0.000000 0.000000 -0.609535 -0.463194 -47.644977 11.616086 -19.226434 1.974049 33.682145 0.587851 -19.293065 0.000000 0.000000 0.000000 -7.125000 0.000000 0.000000 5.636000 52.708542 -1.071822 0.000000 0.000000 0.000000 -13.359405 5.492552 47.458130 -27.376037 -38.530524 -9.734402 -28.135579 -21.265730 -2.850468 0.000000 0.000000 0.000000 7.125000 0.000000 0.000000 -1.172045 26.747609 -0.519297
-27.640781 16.260223 -4.341728 169.572546 58.592302 -541.057152 0.000000 0.000000 0.000000 -29.805660 0.002302 -16.686998 2.896299 10.524991 30.694207 1.875925 -2.919139 -25.148551 1.672266 -8.147224 -23.162099 0.000000 0.000000 0.000000 8.445260 14.722094 -37.912721 -12.248416 -18.493450 66.773695 -2.137389 2.567312 -26.989139 -0.049467 1.436052 -3.949421 -3.380992 -3.973055 7.823317 2.394841 -5.320305 3.528881 4.763947 -2.656886 -0.170354 0.380059 -2.390853 -11.152471 9.155092 -2.525493 -6.948627 2.779679 -1.012371 -0.178487 0.000000 0.000000 0.000000 -3.966790 -6.333826 -48.519856 12.593132 -20.687741 2.307838 33.247605 -0.847947 -18.817271 0.000000 0.000000 0.000000 -7.125000 0.000000 0.000000 5.220655 52.074995 -0.911481 0.000000 0.000000 0.000000 -13.939363 9.570706 44.948902 -25.009710 -36.213525 -8.295836 -27.259382 -21.709009 -2.839507 0.000000 0.000000 0.000000 7.125000 0.000000 0.000000 -0.503506 26.786094 -0.222499
-27.127552 16.257911 -4.542314 168.610735 57.526443 -541.887980 0.000000 0.000000 0.000000 -30.269209 -0.003132 -12.628662 2.399696 9.650356 27.854161 1.909634 -2.335045 -25.512812 1.624848 -8.036457 -22.824953 0.000000 0.000000 0.000000 6.106279 16.222018 -41.529215 -11.177982 -18.019056 63.355845 -2.073395 2.681519 -26.541039 -0.047899 1.412154 -3.883585 -3.661214 -4.320574 7.650114 2.539927 -5.784878 3.683470 5.073963 -2.903037 0.181557 0.538987 -2.231726 -11.329485 8.656756 -2.342731 -7.013136 2.588558 -0.926974 -0.190043 0.000000 0.000000 0.000000 -6.105303 -11.128880 -54.111113 15.032248 -24.183727 3.243544 32.101808 -4.933964 -18.262492 0.000000 0.000000 0.000000 -7.125000 0.000000 0.000000 4.083426 51.219194 -0.628048 0.000000 0.000000 0.000000 -14.380198 13.575038 43.976580 -23.187320 -34.291014 -7.244409 -25.766733 -21.593958 -3.023971 0.000000 0.000000 0.000000 7.125000 0.000000 0.000000 0.639135 26.622569 0.285290
-26.601450 16.236348 -4.746227 167.400761 56.796797 -542.858124 0.000000 0.000000 0.000000 -30.778028 0.622771 -8.608134 1.883234 8.615490 24.601526 1.892487 -1.883616 -25.504346 1.571267 -7.909239 -22.438827 0.000000 0.000000 0.000000 4.027506 17.071552 -44.908209 -9.958338 -17.384329 59.346251 -1.895595 2.404405 -25.398173 -0.026888 1.054736 -2.899439 -4.102481 -4.622023 7.390690 2.635811 -6.206446 3.712635 5.413626 -3.130992 0.464911 0.820679 -1.993932 -11.518697 8.071355 -2.103595 -6.808229 2.348735 -0.813772 -0.117677 0.000000 0.000000 0.000000 -7.130967 -15.469182 -61.634189 18.480369 -28.758624 4.782966 30.326211 -9.016601 -17.546546 0.000000 0.000000 0.000000 -7.125000 0.000000 0.000000 2.357484 50.084482 -0.297685 0.000000 0.000000 0.000000 -14.363221 17.387203 43.520295 -21.733317 -32.673253 -6.441749 -24.051218 -21.887707 -3.283711 0.000000 0.000000 0.000000 7.125000 0.000000 0.000000 1.948098 26.383792 0.880254
-26.061591 16.186995 -4.954395 165.968389 56.390936 -543.993090 0.000000 0.000000 0.000000 -31.258890 1.988605 -4.646969 1.382306 7.437259 21.018388 1.821362 -1.718214 -25.047953 1.471019 -7.663993 -21.698288 0.000000 0.000000 0.000000 2.390638 17.330748 -47.979458 -8.706975 -16.614341 55.069540 -1.662815 1.749341 -23.893830 -0.002710 0.311611 -0.856161 -4.676864 -4.875756 7.025410 2.703214 -6.575413 3.659945 5.784107 -3.337033 0.734930 1.168544 -1.672184 -11.773682 7.437314 -1.786714 -6.372093 2.086632 -0.659557 0.036824 0.000000 0.000000 0.000000 -7.355741 -19.861843 -68.808580 22.697470 -33.749915 6.972258 27.984912 -11.839866 -16.762379 0.000000 0.000000 0.000000 -7.125000 0.000000 0.000000 0.139354 48.813826 -0.014236 0.000000 0.000000 0.000000 -13.636061 20.860914 42.516238 -20.600165 -31.358423 -5.840596 -22.760032 -23.165555 -3.546791 0.000000 0.000000 0.000000 7.125000 0.000000 0.000000 2.928586 26.132668 1.341048
-25.509758 16.105049 -5.166792 164.340295 56.288578 -545.353775 0.000000 0.000000 0.000000 -31.641150 4.185254 -0.618335 0.912012 6.076355 17.008802 1.688725 -1.855415 -24.057076 1.303243 -7.231252 -20.402715 0.000000 0.000000 0.000000 1.255897 17.235018 -50.607722 -7.568815 -15.790249 50.990105 -1.473746 0.840290 -22.706915 -0.014558 -0.739431 2.032417 -5.318353 -5.081943 6.582531 2.755900 -6.880718 3.588194 6.161955 -3.515241 1.034163 1.459449 -1.302224 -12.100638 6.789389 -1.406721 -5.855927 1.837418 -0.471479 0.230362 0.000000 0.000000 0.000000 -7.109125 -24.517734 -74.423681 27.556823 -38.685580 9.852851 25.586579 -13.758523 -16.151883 0.000000 0.000000 0.000000 -7.125000 0.000000 0.000000 -2.088792 47.771499 0.141157 0.000000 0.000000 0.000000 -12.185971 23.793815 40.483857 -19.789434 -30.387517 -5.424638 -22.400546 -24.614167 -3.907500 0.000000 0.000000 0.000000 7.125000 0.000000 0.000000 3.198232 25.753008 1.493145
-24.948338 15.990930 -5.380471 162.542032 56.400331 -547.026741 0.000000 0.000000 0.000000 -31.858457 7.194554 3.827258 0.475500 4.411083 12.237966 1.491410 -2.067013 -22.513631 1.151172 -6.812112 -19.159935 0.000000 0.000000 0.000000 0.538841 17.026046 -52.726295 -6.698569 -15.071822 47.723115 -1.385248 -0.349937 -22.390714 -0.092641 -1.952032 5.373405 -6.022323 -5.273878 6.156532 2.820382 -7.163683 3.544619 6.581338 -3.686676 1.367780 1.594378 -0.923942 -12.421946 6.161684 -0.986126 -5.419470 1.628307 -0.263861 0.402449 0.000000 0.000000 0.000000 -6.476091 -29.429480 -78.461860 32.923666 -43.259196 13.373941 23.955197 -15.742455 -15.928001 0.000000 0.000000 0.000000 -7.125000 0.000000 0.000000 -3.608098 47.290199 0.203997 0.000000 0.000000 0.000000 -10.454522 25.882353 38.041972 -19.252862 -29.731625 -5.155727 -22.532186 -25.125287 -4.427224 0.000000 0.000000 0.000000 7.125000 0.000000 0.000000 3.096063 25.187743 1.486081
